<?xml version="1.0" standalone="no"?>
<!DOCTYPE svg PUBLIC "-//W3C//DTD SVG 20010904//EN"
 "http://www.w3.org/TR/2001/REC-SVG-20010904/DTD/svg10.dtd">
<svg version="1.0" xmlns="http://www.w3.org/2000/svg"
 width="381.000000pt" height="357.000000pt" viewBox="0 0 381.000000 357.000000"
 preserveAspectRatio="xMidYMid meet">

<g transform="translate(0.000000,357.000000) scale(0.100000,-0.100000)"
fill="#000000" stroke="none">
<path d="M1755 3394 c-145 -16 -344 -66 -362 -91 -7 -9 -13 -46 -13 -82 0
-149 -113 -272 -264 -288 -66 -7 -138 9 -188 43 -59 38 -74 33 -160 -55 -143
-148 -254 -315 -332 -501 -48 -114 -99 -291 -90 -315 3 -8 29 -27 58 -44 203
-114 206 -399 6 -519 -30 -17 -58 -38 -62 -46 -12 -21 37 -196 88 -316 78
-186 189 -353 332 -501 86 -88 101 -93 160 -55 189 124 452 -18 452 -245 0
-36 6 -73 13 -82 13 -19 103 -46 242 -73 133 -27 433 -25 570 3 149 31 214 52
225 73 6 10 10 47 10 82 0 146 115 270 264 285 66 7 138 -9 188 -43 59 -38 74
-33 160 55 143 148 254 315 332 501 51 119 97 285 87 312 -3 10 -31 32 -61 50
-200 120 -197 405 5 519 29 16 55 38 58 48 7 29 -40 197 -89 311 -78 186 -189
353 -332 501 -86 88 -101 93 -160 55 -188 -123 -452 18 -452 242 0 35 -4 72
-10 82 -11 21 -78 43 -220 71 -93 19 -366 32 -455 23z m311 -284 c73 -36 126
-91 162 -169 22 -46 27 -71 27 -141 0 -76 -3 -92 -33 -152 -38 -77 -92 -130
-171 -166 -80 -38 -202 -38 -282 0 -79 36 -133 89 -171 166 -30 60 -33 76 -33
152 0 70 5 95 26 140 86 185 294 259 475 170z m-873 -495 c72 -34 149 -117
176 -190 28 -75 28 -175 -1 -252 -15 -42 -38 -75 -83 -120 -53 -53 -71 -64
-134 -84 -175 -53 -347 24 -424 189 -25 54 -30 76 -30 142 0 66 5 88 30 142
46 98 134 173 237 199 58 15 169 3 229 -26z m1729 1 c74 -35 135 -97 171 -174
25 -54 29 -75 29 -143 0 -67 -5 -89 -30 -142 -78 -165 -248 -241 -423 -188
-63 20 -81 31 -134 84 -45 45 -68 78 -83 120 -29 77 -29 177 -1 252 37 98 139
189 243 216 58 15 169 3 228 -25z m-929 -580 c198 -71 224 -345 42 -451 -118
-69 -272 -27 -342 93 -24 40 -28 58 -28 122 0 64 4 82 28 122 47 80 127 127
217 127 25 0 62 -6 83 -13z m-837 -407 c57 -18 77 -31 129 -82 76 -77 105
-144 105 -247 0 -134 -76 -257 -197 -316 -50 -24 -70 -28 -148 -28 -78 0 -98
3 -146 27 -75 36 -136 98 -172 175 -25 54 -30 76 -30 142 0 66 5 88 30 142 79
168 249 243 429 187z m1766 -13 c73 -35 135 -97 171 -173 24 -53 29 -76 29
-142 0 -68 -4 -89 -29 -143 -36 -77 -97 -139 -172 -175 -48 -24 -68 -27 -146
-27 -78 0 -98 4 -148 28 -73 36 -149 118 -176 191 -28 75 -28 175 1 252 32 86
123 174 209 202 86 28 184 23 261 -13z m-856 -506 c73 -36 126 -91 162 -169
22 -46 27 -71 27 -141 0 -76 -3 -92 -33 -152 -38 -77 -92 -130 -171 -166 -80
-38 -202 -38 -282 0 -79 36 -133 89 -171 166 -30 60 -33 76 -33 152 0 70 5 95
26 140 86 185 294 259 475 170z"/>
<path d="M1842 2934 c-131 -67 -94 -265 52 -281 115 -13 200 106 151 211 -35
73 -131 106 -203 70z m102 -100 c31 -30 9 -84 -34 -84 -24 0 -50 26 -50 50 0
24 26 50 50 50 10 0 26 -7 34 -16z"/>
<path d="M990 2439 c-129 -52 -122 -241 11 -281 99 -29 189 40 189 145 0 102
-106 173 -200 136z m81 -99 c12 -7 19 -21 19 -40 0 -51 -58 -68 -86 -25 -15
23 -15 27 0 50 18 27 36 31 67 15z"/>
<path d="M2710 2433 c-143 -74 -81 -296 79 -280 80 9 133 67 133 147 0 110
-116 183 -212 133z m99 -97 c17 -20 10 -67 -11 -79 -28 -18 -68 7 -68 42 0 44
53 69 79 37z"/>
<path d="M985 1436 c-99 -44 -121 -174 -41 -244 102 -89 246 -24 246 111 0
105 -109 175 -205 133z m86 -96 c12 -7 19 -21 19 -40 0 -51 -58 -68 -86 -25
-15 23 -15 27 0 50 18 27 36 31 67 15z"/>
<path d="M2710 1433 c-143 -74 -81 -296 79 -280 80 9 133 67 133 147 0 110
-116 183 -212 133z m99 -97 c17 -20 10 -67 -11 -79 -28 -18 -68 7 -68 42 0 44
53 69 79 37z"/>
<path d="M1842 934 c-131 -67 -94 -265 52 -281 115 -13 200 106 151 211 -35
73 -131 106 -203 70z m102 -100 c31 -30 9 -84 -34 -84 -24 0 -50 26 -50 50 0
24 26 50 50 50 10 0 26 -7 34 -16z"/>
</g>
</svg>
